<svg width="156" height="47" viewBox="0 0 156 47" fill="none" xmlns="http://www.w3.org/2000/svg">
<rect x="0.00317383" y="0.611938" width="155.065" height="46.1771" rx="8" fill="#F3F2FF"/>
<path d="M29.2816 19.9699C28.8086 19.9329 28.3006 20.0459 27.5226 20.3429C27.5886 20.3179 26.7806 20.6329 26.5546 20.7129C26.0526 20.8879 25.6396 20.9839 25.1766 20.9839C24.7186 20.9839 24.2966 20.8919 23.8106 20.7289C23.6556 20.6759 23.4996 20.6189 23.3056 20.5429C23.2236 20.5109 22.9236 20.3909 22.8576 20.3659C22.2096 20.1119 21.8446 20.0159 21.5416 20.0239C20.3896 20.0389 19.2986 20.7039 18.6656 21.8059C17.3736 24.0499 18.0886 28.1049 19.9776 30.8369C20.9836 32.2809 21.5336 32.7969 21.7556 32.7899C21.9776 32.7799 22.1406 32.7329 22.5386 32.5649L22.7056 32.4939C23.7106 32.0649 24.4156 31.8759 25.4766 31.8759C26.4976 31.8759 27.1796 32.0619 28.1446 32.4779L28.3126 32.5499C28.7106 32.7199 28.8546 32.7579 29.1046 32.7519C29.4626 32.7469 29.9036 32.3349 30.8826 30.8979C31.1506 30.5069 31.3876 30.0949 31.5926 29.6779C31.4578 29.567 31.3271 29.4512 31.2006 29.3309C29.9116 28.1029 29.1146 26.4469 29.0926 24.4009C29.071 22.8871 29.5686 21.4116 30.5026 20.2199C30.1106 20.0752 29.6989 19.9909 29.2816 19.9699ZM29.4366 17.9759C30.1446 18.0239 32.1726 18.2399 33.4926 20.1719C33.3846 20.2319 31.0686 21.5759 31.0926 24.3839C31.1286 27.7439 34.0326 28.8599 34.0686 28.8719C34.0446 28.9559 33.6006 30.4679 32.5326 32.0279C31.6086 33.3839 30.6486 34.7279 29.1366 34.7519C27.6486 34.7879 27.1686 33.8759 25.4766 33.8759C23.7726 33.8759 23.2446 34.7279 21.8406 34.7879C20.3766 34.8359 19.2726 33.3239 18.3366 31.9799C16.4286 29.2199 14.9766 24.2039 16.9326 20.8079C17.9046 19.1159 19.6326 18.0479 21.5166 18.0239C22.9446 17.9879 24.3006 18.9839 25.1766 18.9839C26.0406 18.9839 27.5886 17.8319 29.4366 17.9759ZM28.2966 16.1519C27.5166 17.0879 26.2446 17.8199 25.0086 17.7239C24.8406 16.4519 25.4646 15.1199 26.1846 14.2919C26.9886 13.3559 28.3326 12.6599 29.4486 12.6119C29.5926 13.9079 29.0766 15.2159 28.2966 16.1519Z" fill="#6729FF"/>
<path d="M53.9726 27.4285H49.3166L48.5166 29.7005H46.6126L50.5966 18.5645H52.7086L56.6926 29.7005H54.7726L53.9726 27.4285ZM53.4606 25.9405L51.6526 20.7725L49.8286 25.9405H53.4606ZM60.2489 22.1805C60.5582 21.7752 60.9795 21.4338 61.5129 21.1565C62.0462 20.8792 62.6489 20.7405 63.3209 20.7405C64.0889 20.7405 64.7875 20.9325 65.4169 21.3165C66.0569 21.6898 66.5582 22.2178 66.9209 22.9005C67.2835 23.5832 67.4649 24.3672 67.4649 25.2525C67.4649 26.1378 67.2835 26.9325 66.9209 27.6365C66.5582 28.3298 66.0569 28.8738 65.4169 29.2685C64.7875 29.6525 64.0889 29.8445 63.3209 29.8445C62.6489 29.8445 62.0515 29.7112 61.5289 29.4445C61.0062 29.1672 60.5795 28.8258 60.2489 28.4205V33.8925H58.4249V20.8845H60.2489V22.1805ZM65.6089 25.2525C65.6089 24.6445 65.4809 24.1218 65.2249 23.6845C64.9795 23.2365 64.6489 22.9005 64.2329 22.6765C63.8275 22.4418 63.3902 22.3245 62.9209 22.3245C62.4622 22.3245 62.0249 22.4418 61.6089 22.6765C61.2035 22.9112 60.8729 23.2525 60.6169 23.7005C60.3715 24.1485 60.2489 24.6765 60.2489 25.2845C60.2489 25.8925 60.3715 26.4258 60.6169 26.8845C60.8729 27.3325 61.2035 27.6738 61.6089 27.9085C62.0249 28.1432 62.4622 28.2605 62.9209 28.2605C63.3902 28.2605 63.8275 28.1432 64.2329 27.9085C64.6489 27.6632 64.9795 27.3112 65.2249 26.8525C65.4809 26.3938 65.6089 25.8605 65.6089 25.2525ZM71.0926 22.1805C71.4019 21.7752 71.8233 21.4338 72.3566 21.1565C72.8899 20.8792 73.4926 20.7405 74.1646 20.7405C74.9326 20.7405 75.6313 20.9325 76.2606 21.3165C76.9006 21.6898 77.4019 22.2178 77.7646 22.9005C78.1273 23.5832 78.3086 24.3672 78.3086 25.2525C78.3086 26.1378 78.1273 26.9325 77.7646 27.6365C77.4019 28.3298 76.9006 28.8738 76.2606 29.2685C75.6313 29.6525 74.9326 29.8445 74.1646 29.8445C73.4926 29.8445 72.8953 29.7112 72.3726 29.4445C71.8499 29.1672 71.4233 28.8258 71.0926 28.4205V33.8925H69.2686V20.8845H71.0926V22.1805ZM76.4526 25.2525C76.4526 24.6445 76.3246 24.1218 76.0686 23.6845C75.8233 23.2365 75.4926 22.9005 75.0766 22.6765C74.6713 22.4418 74.2339 22.3245 73.7646 22.3245C73.3059 22.3245 72.8686 22.4418 72.4526 22.6765C72.0473 22.9112 71.7166 23.2525 71.4606 23.7005C71.2153 24.1485 71.0926 24.6765 71.0926 25.2845C71.0926 25.8925 71.2153 26.4258 71.4606 26.8845C71.7166 27.3325 72.0473 27.6738 72.4526 27.9085C72.8686 28.1432 73.3059 28.2605 73.7646 28.2605C74.2339 28.2605 74.6713 28.1432 75.0766 27.9085C75.4926 27.6632 75.8233 27.3112 76.0686 26.8525C76.3246 26.3938 76.4526 25.8605 76.4526 25.2525ZM81.9364 17.8605V29.7005H80.1124V17.8605H81.9364ZM92.4111 25.0765C92.4111 25.4072 92.3898 25.7058 92.3471 25.9725H85.6111C85.6644 26.6765 85.9258 27.2418 86.3951 27.6685C86.8644 28.0952 87.4404 28.3085 88.1231 28.3085C89.1044 28.3085 89.7978 27.8978 90.2031 27.0765H92.1711C91.9044 27.8872 91.4191 28.5538 90.7151 29.0765C90.0218 29.5885 89.1578 29.8445 88.1231 29.8445C87.2804 29.8445 86.5231 29.6578 85.8511 29.2845C85.1898 28.9005 84.6671 28.3672 84.2831 27.6845C83.9098 26.9912 83.7231 26.1912 83.7231 25.2845C83.7231 24.3778 83.9044 23.5832 84.2671 22.9005C84.6404 22.2072 85.1578 21.6738 85.8191 21.3005C86.4911 20.9272 87.2591 20.7405 88.1231 20.7405C88.9551 20.7405 89.6964 20.9218 90.3471 21.2845C90.9978 21.6472 91.5044 22.1592 91.8671 22.8205C92.2298 23.4712 92.4111 24.2232 92.4111 25.0765ZM90.5071 24.5005C90.4964 23.8285 90.2564 23.2898 89.7871 22.8845C89.3178 22.4792 88.7364 22.2765 88.0431 22.2765C87.4138 22.2765 86.8751 22.4792 86.4271 22.8845C85.9791 23.2792 85.7124 23.8178 85.6271 24.5005H90.5071ZM102.026 29.8125C101.28 29.8125 100.608 29.6845 100.01 29.4285C99.413 29.1618 98.9437 28.7885 98.6024 28.3085C98.261 27.8285 98.0904 27.2685 98.0904 26.6285H100.042C100.085 27.1085 100.272 27.5032 100.602 27.8125C100.944 28.1218 101.418 28.2765 102.026 28.2765C102.656 28.2765 103.146 28.1272 103.498 27.8285C103.85 27.5192 104.026 27.1245 104.026 26.6445C104.026 26.2712 103.914 25.9672 103.69 25.7325C103.477 25.4978 103.205 25.3165 102.874 25.1885C102.554 25.0605 102.106 24.9218 101.53 24.7725C100.805 24.5805 100.213 24.3885 99.7544 24.1965C99.3064 23.9938 98.9224 23.6845 98.6024 23.2685C98.2824 22.8525 98.1224 22.2978 98.1224 21.6045C98.1224 20.9645 98.2824 20.4045 98.6024 19.9245C98.9224 19.4445 99.3704 19.0765 99.9464 18.8205C100.522 18.5645 101.189 18.4365 101.946 18.4365C103.024 18.4365 103.904 18.7085 104.586 19.2525C105.28 19.7858 105.664 20.5218 105.738 21.4605H103.722C103.69 21.0552 103.498 20.7085 103.146 20.4205C102.794 20.1325 102.33 19.9885 101.754 19.9885C101.232 19.9885 100.805 20.1218 100.474 20.3885C100.144 20.6552 99.9784 21.0392 99.9784 21.5405C99.9784 21.8818 100.08 22.1645 100.282 22.3885C100.496 22.6018 100.762 22.7725 101.082 22.9005C101.402 23.0285 101.84 23.1672 102.394 23.3165C103.13 23.5192 103.728 23.7218 104.186 23.9245C104.656 24.1272 105.05 24.4418 105.37 24.8685C105.701 25.2845 105.866 25.8445 105.866 26.5485C105.866 27.1138 105.712 27.6472 105.402 28.1485C105.104 28.6498 104.661 29.0552 104.074 29.3645C103.498 29.6632 102.816 29.8125 102.026 29.8125ZM110.147 22.3725V27.2525C110.147 27.5832 110.221 27.8232 110.371 27.9725C110.531 28.1112 110.797 28.1805 111.171 28.1805H112.291V29.7005H110.851C110.029 29.7005 109.4 29.5085 108.963 29.1245C108.525 28.7405 108.307 28.1165 108.307 27.2525V22.3725H107.267V20.8845H108.307V18.6925H110.147V20.8845H112.291V22.3725H110.147ZM117.796 29.8445C116.964 29.8445 116.212 29.6578 115.54 29.2845C114.868 28.9005 114.34 28.3672 113.956 27.6845C113.572 26.9912 113.38 26.1912 113.38 25.2845C113.38 24.3885 113.577 23.5938 113.972 22.9005C114.366 22.2072 114.905 21.6738 115.588 21.3005C116.27 20.9272 117.033 20.7405 117.876 20.7405C118.718 20.7405 119.481 20.9272 120.164 21.3005C120.846 21.6738 121.385 22.2072 121.78 22.9005C122.174 23.5938 122.372 24.3885 122.372 25.2845C122.372 26.1805 122.169 26.9752 121.764 27.6685C121.358 28.3618 120.804 28.9005 120.1 29.2845C119.406 29.6578 118.638 29.8445 117.796 29.8445ZM117.796 28.2605C118.265 28.2605 118.702 28.1485 119.108 27.9245C119.524 27.7005 119.86 27.3645 120.116 26.9165C120.372 26.4685 120.5 25.9245 120.5 25.2845C120.5 24.6445 120.377 24.1058 120.132 23.6685C119.886 23.2205 119.561 22.8845 119.156 22.6605C118.75 22.4365 118.313 22.3245 117.844 22.3245C117.374 22.3245 116.937 22.4365 116.532 22.6605C116.137 22.8845 115.822 23.2205 115.588 23.6685C115.353 24.1058 115.236 24.6445 115.236 25.2845C115.236 26.2338 115.476 26.9698 115.956 27.4925C116.446 28.0045 117.06 28.2605 117.796 28.2605ZM125.999 22.1645C126.266 21.7165 126.618 21.3698 127.055 21.1245C127.503 20.8685 128.031 20.7405 128.639 20.7405V22.6285H128.175C127.46 22.6285 126.916 22.8098 126.543 23.1725C126.18 23.5352 125.999 24.1645 125.999 25.0605V29.7005H124.175V20.8845H125.999V22.1645ZM138.395 25.0765C138.395 25.4072 138.374 25.7058 138.331 25.9725H131.595C131.649 26.6765 131.91 27.2418 132.379 27.6685C132.849 28.0952 133.425 28.3085 134.107 28.3085C135.089 28.3085 135.782 27.8978 136.187 27.0765H138.155C137.889 27.8872 137.403 28.5538 136.699 29.0765C136.006 29.5885 135.142 29.8445 134.107 29.8445C133.265 29.8445 132.507 29.6578 131.835 29.2845C131.174 28.9005 130.651 28.3672 130.267 27.6845C129.894 26.9912 129.707 26.1912 129.707 25.2845C129.707 24.3778 129.889 23.5832 130.251 22.9005C130.625 22.2072 131.142 21.6738 131.803 21.3005C132.475 20.9272 133.243 20.7405 134.107 20.7405C134.939 20.7405 135.681 20.9218 136.331 21.2845C136.982 21.6472 137.489 22.1592 137.851 22.8205C138.214 23.4712 138.395 24.2232 138.395 25.0765ZM136.491 24.5005C136.481 23.8285 136.241 23.2898 135.771 22.8845C135.302 22.4792 134.721 22.2765 134.027 22.2765C133.398 22.2765 132.859 22.4792 132.411 22.8845C131.963 23.2792 131.697 23.8178 131.611 24.5005H136.491Z" fill="#6729FF"/>
</svg>
