<svg width="158" height="45" viewBox="0 0 158 45" fill="none" xmlns="http://www.w3.org/2000/svg">
<rect y="0.434723" width="158.003" height="44.5316" rx="8" fill="#F3F2FF"/>
<path d="M17 12.4347C17.176 12.4349 17.3488 12.4814 17.501 12.5697L33.505 21.8357C33.6565 21.9236 33.7823 22.0498 33.8698 22.2016C33.9572 22.3534 34.0032 22.5255 34.0032 22.7007C34.0032 22.8759 33.9572 23.048 33.8698 23.1998C33.7823 23.3516 33.6565 23.4778 33.505 23.5657L17.501 32.8317C17.349 32.9197 17.1766 32.9661 17.001 32.9663C16.8254 32.9664 16.6528 32.9204 16.5007 32.8327C16.3486 32.745 16.2222 32.6188 16.1343 32.4668C16.0464 32.3148 16.0001 32.1423 16 31.9667V13.4347C16 13.1695 16.1054 12.9152 16.2929 12.7276C16.4804 12.5401 16.7348 12.4347 17 12.4347ZM25.292 24.1147L20.794 28.6127L26.493 25.3137L25.293 24.1137L25.292 24.1147ZM18 16.8187V28.5787L23.88 22.6987L18 16.8187ZM28.284 21.1207L26.706 22.7007L28.284 24.2777L31.008 22.7007L28.283 21.1217L28.284 21.1207ZM20.794 16.7847L25.294 21.2847L26.493 20.0847L20.794 16.7847Z" fill="#6729FF"/>
<path d="M55.2512 20.7805C54.9632 20.2258 54.5632 19.8098 54.0512 19.5325C53.5392 19.2445 52.9472 19.1005 52.2752 19.1005C51.5392 19.1005 50.8832 19.2658 50.3072 19.5965C49.7312 19.9272 49.2778 20.3965 48.9472 21.0045C48.6272 21.6125 48.4672 22.3165 48.4672 23.1165C48.4672 23.9165 48.6272 24.6258 48.9472 25.2445C49.2778 25.8525 49.7312 26.3218 50.3072 26.6525C50.8832 26.9832 51.5392 27.1485 52.2752 27.1485C53.2672 27.1485 54.0725 26.8712 54.6912 26.3165C55.3098 25.7618 55.6885 25.0098 55.8272 24.0605H51.6512V22.6045H57.7792V24.0285C57.6618 24.8925 57.3525 25.6872 56.8512 26.4125C56.3605 27.1378 55.7152 27.7192 54.9152 28.1565C54.1258 28.5832 53.2458 28.7965 52.2752 28.7965C51.2298 28.7965 50.2752 28.5565 49.4112 28.0765C48.5472 27.5858 47.8592 26.9085 47.3472 26.0445C46.8458 25.1805 46.5952 24.2045 46.5952 23.1165C46.5952 22.0285 46.8458 21.0525 47.3472 20.1885C47.8592 19.3245 48.5472 18.6525 49.4112 18.1725C50.2858 17.6818 51.2405 17.4365 52.2752 17.4365C53.4592 17.4365 54.5098 17.7298 55.4272 18.3165C56.3552 18.8925 57.0272 19.7138 57.4432 20.7805H55.2512ZM63.4022 28.8445C62.5702 28.8445 61.8182 28.6578 61.1462 28.2845C60.4742 27.9005 59.9462 27.3672 59.5622 26.6845C59.1782 25.9912 58.9862 25.1912 58.9862 24.2845C58.9862 23.3885 59.1835 22.5938 59.5782 21.9005C59.9728 21.2072 60.5115 20.6738 61.1942 20.3005C61.8768 19.9272 62.6395 19.7405 63.4822 19.7405C64.3248 19.7405 65.0875 19.9272 65.7702 20.3005C66.4528 20.6738 66.9915 21.2072 67.3862 21.9005C67.7808 22.5938 67.9782 23.3885 67.9782 24.2845C67.9782 25.1805 67.7755 25.9752 67.3702 26.6685C66.9648 27.3618 66.4102 27.9005 65.7062 28.2845C65.0128 28.6578 64.2448 28.8445 63.4022 28.8445ZM63.4022 27.2605C63.8715 27.2605 64.3088 27.1485 64.7142 26.9245C65.1302 26.7005 65.4662 26.3645 65.7222 25.9165C65.9782 25.4685 66.1062 24.9245 66.1062 24.2845C66.1062 23.6445 65.9835 23.1058 65.7382 22.6685C65.4928 22.2205 65.1675 21.8845 64.7622 21.6605C64.3568 21.4365 63.9195 21.3245 63.4502 21.3245C62.9808 21.3245 62.5435 21.4365 62.1382 21.6605C61.7435 21.8845 61.4288 22.2205 61.1942 22.6685C60.9595 23.1058 60.8422 23.6445 60.8422 24.2845C60.8422 25.2338 61.0822 25.9698 61.5622 26.4925C62.0528 27.0045 62.6662 27.2605 63.4022 27.2605ZM73.6053 28.8445C72.7733 28.8445 72.0213 28.6578 71.3493 28.2845C70.6773 27.9005 70.1493 27.3672 69.7653 26.6845C69.3813 25.9912 69.1893 25.1912 69.1893 24.2845C69.1893 23.3885 69.3866 22.5938 69.7813 21.9005C70.176 21.2072 70.7146 20.6738 71.3973 20.3005C72.08 19.9272 72.8426 19.7405 73.6853 19.7405C74.528 19.7405 75.2906 19.9272 75.9733 20.3005C76.656 20.6738 77.1946 21.2072 77.5893 21.9005C77.984 22.5938 78.1813 23.3885 78.1813 24.2845C78.1813 25.1805 77.9786 25.9752 77.5733 26.6685C77.168 27.3618 76.6133 27.9005 75.9093 28.2845C75.216 28.6578 74.448 28.8445 73.6053 28.8445ZM73.6053 27.2605C74.0746 27.2605 74.512 27.1485 74.9173 26.9245C75.3333 26.7005 75.6693 26.3645 75.9253 25.9165C76.1813 25.4685 76.3093 24.9245 76.3093 24.2845C76.3093 23.6445 76.1866 23.1058 75.9413 22.6685C75.696 22.2205 75.3706 21.8845 74.9653 21.6605C74.56 21.4365 74.1226 21.3245 73.6533 21.3245C73.184 21.3245 72.7466 21.4365 72.3413 21.6605C71.9466 21.8845 71.632 22.2205 71.3973 22.6685C71.1626 23.1058 71.0453 23.6445 71.0453 24.2845C71.0453 25.2338 71.2853 25.9698 71.7653 26.4925C72.256 27.0045 72.8693 27.2605 73.6053 27.2605ZM83.5364 19.7405C84.2191 19.7405 84.8218 19.8792 85.3444 20.1565C85.8778 20.4232 86.2938 20.7592 86.5924 21.1645V19.8845H88.4324V28.8445C88.4324 29.6552 88.2618 30.3752 87.9204 31.0045C87.5791 31.6445 87.0831 32.1458 86.4324 32.5085C85.7924 32.8712 85.0244 33.0525 84.1284 33.0525C82.9338 33.0525 81.9418 32.7698 81.1524 32.2045C80.3631 31.6498 79.9151 30.8925 79.8084 29.9325H81.6164C81.7551 30.3912 82.0484 30.7592 82.4964 31.0365C82.9551 31.3245 83.4991 31.4685 84.1284 31.4685C84.8644 31.4685 85.4564 31.2445 85.9044 30.7965C86.3631 30.3485 86.5924 29.6978 86.5924 28.8445V27.3725C86.2831 27.7885 85.8618 28.1405 85.3284 28.4285C84.8058 28.7058 84.2084 28.8445 83.5364 28.8445C82.7684 28.8445 82.0644 28.6525 81.4244 28.2685C80.7951 27.8738 80.2938 27.3298 79.9204 26.6365C79.5578 25.9325 79.3764 25.1378 79.3764 24.2525C79.3764 23.3672 79.5578 22.5832 79.9204 21.9005C80.2938 21.2178 80.7951 20.6898 81.4244 20.3165C82.0644 19.9325 82.7684 19.7405 83.5364 19.7405ZM86.5924 24.2845C86.5924 23.6765 86.4644 23.1485 86.2084 22.7005C85.9631 22.2525 85.6378 21.9112 85.2324 21.6765C84.8271 21.4418 84.3898 21.3245 83.9204 21.3245C83.4511 21.3245 83.0138 21.4418 82.6084 21.6765C82.2031 21.9005 81.8724 22.2365 81.6164 22.6845C81.3711 23.1218 81.2484 23.6445 81.2484 24.2525C81.2484 24.8605 81.3711 25.3938 81.6164 25.8525C81.8724 26.3112 82.2031 26.6632 82.6084 26.9085C83.0244 27.1432 83.4618 27.2605 83.9204 27.2605C84.3898 27.2605 84.8271 27.1432 85.2324 26.9085C85.6378 26.6738 85.9631 26.3325 86.2084 25.8845C86.4644 25.4258 86.5924 24.8925 86.5924 24.2845ZM92.6522 16.8605V28.7005H90.8282V16.8605H92.6522ZM103.127 24.0765C103.127 24.4072 103.106 24.7058 103.063 24.9725H96.3269C96.3803 25.6765 96.6416 26.2418 97.1109 26.6685C97.5803 27.0952 98.1563 27.3085 98.8389 27.3085C99.8203 27.3085 100.514 26.8978 100.919 26.0765H102.887C102.62 26.8872 102.135 27.5538 101.431 28.0765C100.738 28.5885 99.8736 28.8445 98.8389 28.8445C97.9963 28.8445 97.2389 28.6578 96.5669 28.2845C95.9056 27.9005 95.3829 27.3672 94.9989 26.6845C94.6256 25.9912 94.4389 25.1912 94.4389 24.2845C94.4389 23.3778 94.6203 22.5832 94.9829 21.9005C95.3563 21.2072 95.8736 20.6738 96.5349 20.3005C97.2069 19.9272 97.9749 19.7405 98.8389 19.7405C99.6709 19.7405 100.412 19.9218 101.063 20.2845C101.714 20.6472 102.22 21.1592 102.583 21.8205C102.946 22.4712 103.127 23.2232 103.127 24.0765ZM101.223 23.5005C101.212 22.8285 100.972 22.2898 100.503 21.8845C100.034 21.4792 99.4523 21.2765 98.7589 21.2765C98.1296 21.2765 97.5909 21.4792 97.1429 21.8845C96.6949 22.2792 96.4283 22.8178 96.3429 23.5005H101.223ZM116.854 20.8925C116.854 21.4578 116.721 21.9912 116.454 22.4925C116.188 22.9938 115.761 23.4045 115.174 23.7245C114.588 24.0338 113.836 24.1885 112.918 24.1885H110.902V28.7005H109.078V17.5805H112.918C113.772 17.5805 114.492 17.7298 115.078 18.0285C115.676 18.3165 116.118 18.7112 116.406 19.2125C116.705 19.7138 116.854 20.2738 116.854 20.8925ZM112.918 22.7005C113.612 22.7005 114.129 22.5458 114.47 22.2365C114.812 21.9165 114.982 21.4685 114.982 20.8925C114.982 19.6765 114.294 19.0685 112.918 19.0685H110.902V22.7005H112.918ZM120.418 16.8605V28.7005H118.594V16.8605H120.418ZM122.205 24.2525C122.205 23.3672 122.386 22.5832 122.749 21.9005C123.122 21.2178 123.623 20.6898 124.253 20.3165C124.893 19.9325 125.597 19.7405 126.365 19.7405C127.058 19.7405 127.661 19.8792 128.173 20.1565C128.695 20.4232 129.111 20.7592 129.421 21.1645V19.8845H131.261V28.7005H129.421V27.3885C129.111 27.8045 128.69 28.1512 128.157 28.4285C127.623 28.7058 127.015 28.8445 126.333 28.8445C125.575 28.8445 124.882 28.6525 124.253 28.2685C123.623 27.8738 123.122 27.3298 122.749 26.6365C122.386 25.9325 122.205 25.1378 122.205 24.2525ZM129.421 24.2845C129.421 23.6765 129.293 23.1485 129.037 22.7005C128.791 22.2525 128.466 21.9112 128.061 21.6765C127.655 21.4418 127.218 21.3245 126.749 21.3245C126.279 21.3245 125.842 21.4418 125.437 21.6765C125.031 21.9005 124.701 22.2365 124.445 22.6845C124.199 23.1218 124.077 23.6445 124.077 24.2525C124.077 24.8605 124.199 25.3938 124.445 25.8525C124.701 26.3112 125.031 26.6632 125.437 26.9085C125.853 27.1432 126.29 27.2605 126.749 27.2605C127.218 27.2605 127.655 27.1432 128.061 26.9085C128.466 26.6738 128.791 26.3325 129.037 25.8845C129.293 25.4258 129.421 24.8925 129.421 24.2845ZM141.592 19.8845L136.184 32.8445H134.296L136.088 28.5565L132.616 19.8845H134.648L137.128 26.6045L139.704 19.8845H141.592Z" fill="#6729FF"/>
</svg>
