<svg width="28" height="28" viewBox="0 0 28 28" fill="none" xmlns="http://www.w3.org/2000/svg">
<path d="M14 8.6666V25.9999M14 8.6666C13.5177 6.67914 12.6873 4.98001 11.617 3.79081C10.5467 2.60161 9.28625 1.97752 8 1.99993C7.11595 1.99993 6.2681 2.35112 5.64298 2.97624C5.01786 3.60136 4.66667 4.44921 4.66667 5.33326C4.66667 6.21732 5.01786 7.06517 5.64298 7.69029C6.2681 8.31541 7.11595 8.6666 8 8.6666M14 8.6666C14.4823 6.67914 15.3127 4.98001 16.383 3.79081C17.4533 2.60161 18.7138 1.97752 20 1.99993C20.8841 1.99993 21.7319 2.35112 22.357 2.97624C22.9821 3.60136 23.3333 4.44921 23.3333 5.33326C23.3333 6.21732 22.9821 7.06517 22.357 7.69029C21.7319 8.31541 20.8841 8.6666 20 8.6666M23.3333 13.9999V23.3333C23.3333 24.0405 23.0524 24.7188 22.5523 25.2189C22.0522 25.719 21.3739 25.9999 20.6667 25.9999H7.33333C6.62609 25.9999 5.94781 25.719 5.44772 25.2189C4.94762 24.7188 4.66667 24.0405 4.66667 23.3333V13.9999M3.33333 8.6666H24.6667C25.403 8.6666 26 9.26355 26 9.99993V12.6666C26 13.403 25.403 13.9999 24.6667 13.9999H3.33333C2.59695 13.9999 2 13.403 2 12.6666V9.99993C2 9.26355 2.59695 8.6666 3.33333 8.6666Z" stroke="#6729FF" stroke-width="2.66667" stroke-linecap="round" stroke-linejoin="round"/>
</svg>
